<svg xmlns="http://www.w3.org/2000/svg" xmlns:xlink="http://www.w3.org/1999/xlink" width="1024" height="512" viewBox="0 0 1024 512"><rect width="100%" height="100%" fill="#DDDDDD"/><path d="M243.21 289.09L259.20 289.09L259.20 300.46L210.00 300.46L210.00 289.09L228.02 289.09L228.02 237.24Q228.02 234.17 228.21 230.91L228.21 230.91L215.42 241.61Q214.31 242.47 213.23 242.69Q212.16 242.90 211.20 242.72Q210.25 242.53 209.51 242.07Q208.77 241.61 208.41 241.06L208.41 241.06L203.61 234.47L230.73 211.41L243.21 211.41L243.21 289.09ZM335.16 256L335.16 256Q335.16 267.62 332.67 276.20Q330.18 284.78 325.78 290.38Q321.38 295.97 315.38 298.71Q309.39 301.45 302.44 301.45L302.44 301.45Q295.49 301.45 289.55 298.71Q283.62 295.97 279.25 290.38Q274.89 284.78 272.43 276.20Q269.97 267.62 269.97 256L269.97 256Q269.97 244.31 272.43 235.77Q274.89 227.22 279.25 221.62Q283.62 216.02 289.55 213.29Q295.49 210.55 302.44 210.55L302.44 210.55Q309.39 210.55 315.38 213.29Q321.38 216.02 325.78 221.62Q330.18 227.22 332.67 235.77Q335.16 244.31 335.16 256ZM319.47 256L319.47 256Q319.47 246.34 318.06 240.01Q316.65 233.68 314.28 229.92Q311.91 226.17 308.83 224.67Q305.76 223.16 302.44 223.16L302.44 223.16Q299.18 223.16 296.13 224.67Q293.09 226.17 290.75 229.92Q288.42 233.68 287.03 240.01Q285.65 246.34 285.65 256L285.65 256Q285.65 265.66 287.03 271.99Q288.42 278.32 290.75 282.08Q293.09 285.83 296.13 287.33Q299.18 288.84 302.44 288.84L302.44 288.84Q305.76 288.84 308.83 287.33Q311.91 285.83 314.28 282.08Q316.65 278.32 318.06 271.99Q319.47 265.66 319.47 256ZM375.75 286.32L398.56 286.32Q401.02 286.32 402.47 287.70Q403.91 289.09 403.91 291.36L403.91 291.36L403.91 300.46L342.91 300.46L342.91 295.42Q342.91 293.88 343.55 292.19Q344.20 290.50 345.61 289.15L345.61 289.15L372.61 262.09Q375.99 258.64 378.67 255.51Q381.34 252.37 383.13 249.30Q384.91 246.22 385.86 243.05Q386.82 239.89 386.82 236.38L386.82 236.38Q386.82 233.18 385.89 230.75Q384.97 228.32 383.28 226.66Q381.59 225.00 379.22 224.17Q376.85 223.34 373.90 223.34L373.90 223.34Q371.20 223.34 368.89 224.11Q366.58 224.88 364.80 226.26Q363.02 227.65 361.79 229.49Q360.56 231.34 359.94 233.55L359.94 233.55Q358.90 236.38 357.24 237.30Q355.57 238.23 352.44 237.73L352.44 237.73L344.44 236.32Q345.37 229.92 348.01 225.10Q350.65 220.27 354.62 217.04Q358.59 213.81 363.72 212.18Q368.86 210.55 374.76 210.55L374.76 210.55Q380.91 210.55 386.02 212.37Q391.12 214.18 394.75 217.50Q398.38 220.82 400.41 225.50Q402.44 230.17 402.44 235.89L402.44 235.89Q402.44 240.81 400.99 244.99Q399.55 249.17 397.12 252.99Q394.69 256.80 391.43 260.37Q388.17 263.93 384.60 267.62L384.60 267.62L364.55 288.10Q367.44 287.24 370.30 286.78Q373.16 286.32 375.75 286.32L375.75 286.32ZM426.30 266.95L453.36 266.95L453.36 237.86Q453.36 233.74 453.91 228.76L453.91 228.76L426.30 266.95ZM466.58 266.95L477.78 266.95L477.78 275.74Q477.78 276.97 476.98 277.86Q476.18 278.75 474.70 278.75L474.70 278.75L466.58 278.75L466.58 300.46L453.36 300.46L453.36 278.75L415.84 278.75Q414.31 278.75 413.14 277.80Q411.97 276.85 411.66 275.43L411.66 275.43L410.06 267.75L452.19 211.47L466.58 211.47L466.58 266.95ZM575.50 280.11L567.44 288.04L546.59 267.19L525.56 288.16L517.50 280.23L538.54 259.14L518.49 239.09L526.48 231.09L546.53 251.14L566.46 231.22L574.58 239.21L554.59 259.20L575.50 280.11ZM640.14 225.31L637.00 243.82Q639.95 243.21 642.66 242.93Q645.36 242.65 647.88 242.65L647.88 242.65Q654.90 242.65 660.25 244.75Q665.60 246.84 669.22 250.53Q672.85 254.22 674.70 259.17Q676.54 264.12 676.54 269.84L676.54 269.84Q676.54 276.91 674.05 282.75Q671.56 288.59 667.13 292.75Q662.71 296.90 656.65 299.17Q650.59 301.45 643.46 301.45L643.46 301.45Q639.27 301.45 635.52 300.59Q631.77 299.73 628.48 298.28Q625.19 296.84 622.39 294.96Q619.59 293.08 617.38 290.99L617.38 290.99L622.05 284.54Q623.53 282.44 625.93 282.44L625.93 282.44Q627.47 282.44 629.07 283.43Q630.66 284.41 632.72 285.58Q634.78 286.75 637.58 287.73Q640.38 288.72 644.32 288.72L644.32 288.72Q648.50 288.72 651.70 287.37Q654.90 286.01 657.02 283.58Q659.14 281.15 660.22 277.80Q661.29 274.45 661.29 270.51L661.29 270.51Q661.29 263.26 657.08 259.17Q652.87 255.08 644.62 255.08L644.62 255.08Q638.29 255.08 631.65 257.41L631.65 257.41L622.18 254.71L629.56 211.54L673.47 211.54L673.47 217.99Q673.47 221.25 671.44 223.28Q669.41 225.31 664.55 225.31L664.55 225.31L640.14 225.31ZM731.03 289.09L747.02 289.09L747.02 300.46L697.82 300.46L697.82 289.09L715.84 289.09L715.84 237.24Q715.84 234.17 716.03 230.91L716.03 230.91L703.23 241.61Q702.13 242.47 701.05 242.69Q699.97 242.90 699.02 242.72Q698.07 242.53 697.33 242.07Q696.59 241.61 696.22 241.06L696.22 241.06L691.43 234.47L718.55 211.41L731.03 211.41L731.03 289.09ZM792.22 286.32L815.04 286.32Q817.50 286.32 818.95 287.70Q820.39 289.09 820.39 291.36L820.39 291.36L820.39 300.46L759.38 300.46L759.38 295.42Q759.38 293.88 760.03 292.19Q760.68 290.50 762.09 289.15L762.09 289.15L789.09 262.09Q792.47 258.64 795.15 255.51Q797.82 252.37 799.60 249.30Q801.39 246.22 802.34 243.05Q803.29 239.89 803.29 236.38L803.29 236.38Q803.29 233.18 802.37 230.75Q801.45 228.32 799.76 226.66Q798.07 225.00 795.70 224.17Q793.33 223.34 790.38 223.34L790.38 223.34Q787.67 223.34 785.37 224.11Q783.06 224.88 781.28 226.26Q779.49 227.65 778.26 229.49Q777.03 231.34 776.42 233.55L776.42 233.55Q775.37 236.38 773.71 237.30Q772.05 238.23 768.92 237.73L768.92 237.73L760.92 236.32Q761.84 229.92 764.49 225.10Q767.13 220.27 771.10 217.04Q775.07 213.81 780.20 212.18Q785.34 210.55 791.24 210.55L791.24 210.55Q797.39 210.55 802.50 212.37Q807.60 214.18 811.23 217.50Q814.86 220.82 816.89 225.50Q818.92 230.17 818.92 235.89L818.92 235.89Q818.92 240.81 817.47 244.99Q816.03 249.17 813.60 252.99Q811.17 256.80 807.91 260.37Q804.65 263.93 801.08 267.62L801.08 267.62L781.03 288.10Q783.92 287.24 786.78 286.78Q789.64 286.32 792.22 286.32L792.22 286.32Z" fill="#999999"/></svg>